<mxfile host="app.diagrams.net" modified="2021-03-01T02:04:01.554Z" agent="5.0 (Macintosh; Intel Mac OS X 10_13_1) AppleWebKit/537.36 (KHTML, like Gecko) Chrome/88.0.4324.192 Safari/537.36" etag="gjSweTPJH14oXHO7uIoQ" version="14.0.1" type="github">
  <diagram id="ca9ZZW8Y5rZ-__sO0Lp7" name="第 1 页">
    <mxGraphModel dx="1426" dy="891" grid="1" gridSize="10" guides="1" tooltips="1" connect="1" arrows="1" fold="1" page="1" pageScale="1" pageWidth="827" pageHeight="1169" math="0" shadow="0">
      <root>
        <mxCell id="0" />
        <mxCell id="1" parent="0" />
        <mxCell id="TqGG68Q6wnh_f_dbYNKC-29" value="" style="triangle;whiteSpace=wrap;html=1;fillColor=#dae8fc;strokeColor=#6c8ebf;direction=north;" vertex="1" parent="1">
          <mxGeometry x="364" y="90" width="100" height="150" as="geometry" />
        </mxCell>
        <mxCell id="TqGG68Q6wnh_f_dbYNKC-31" value="" style="rounded=0;whiteSpace=wrap;html=1;direction=south;strokeColor=#0066CC;fillColor=#0066CC;" vertex="1" parent="1">
          <mxGeometry x="364" y="240" width="100" height="520" as="geometry" />
        </mxCell>
        <mxCell id="TqGG68Q6wnh_f_dbYNKC-35" value="" style="shape=step;perimeter=stepPerimeter;whiteSpace=wrap;html=1;fixedSize=1;direction=south;strokeColor=#b85450;fillColor=#E6E6E6;" vertex="1" parent="1">
          <mxGeometry x="314" y="530" width="50" height="250" as="geometry" />
        </mxCell>
        <mxCell id="TqGG68Q6wnh_f_dbYNKC-36" value="" style="ellipse;shape=doubleEllipse;whiteSpace=wrap;html=1;aspect=fixed;strokeColor=#6c8ebf;fillColor=#dae8fc;" vertex="1" parent="1">
          <mxGeometry x="384" y="390" width="60" height="60" as="geometry" />
        </mxCell>
        <mxCell id="TqGG68Q6wnh_f_dbYNKC-37" value="" style="triangle;whiteSpace=wrap;html=1;strokeColor=#0066CC;fillColor=#0066CC;direction=west;" vertex="1" parent="1">
          <mxGeometry x="284" y="460" width="30" height="270" as="geometry" />
        </mxCell>
        <mxCell id="TqGG68Q6wnh_f_dbYNKC-38" value="" style="shape=step;perimeter=stepPerimeter;whiteSpace=wrap;html=1;fixedSize=1;strokeColor=#666666;direction=south;fontColor=#333333;fillColor=#E6E6E6;" vertex="1" parent="1">
          <mxGeometry x="464" y="530" width="46" height="250" as="geometry" />
        </mxCell>
        <mxCell id="TqGG68Q6wnh_f_dbYNKC-39" value="" style="triangle;whiteSpace=wrap;html=1;strokeColor=#0066CC;fillColor=#0066CC;" vertex="1" parent="1">
          <mxGeometry x="284" y="590" width="30" height="260" as="geometry" />
        </mxCell>
        <mxCell id="TqGG68Q6wnh_f_dbYNKC-41" value="" style="triangle;whiteSpace=wrap;html=1;strokeColor=#0066CC;fillColor=#0066CC;direction=west;" vertex="1" parent="1">
          <mxGeometry x="510" y="590" width="30" height="270" as="geometry" />
        </mxCell>
        <mxCell id="TqGG68Q6wnh_f_dbYNKC-42" value="" style="triangle;whiteSpace=wrap;html=1;strokeColor=#0066CC;fillColor=#0066CC;" vertex="1" parent="1">
          <mxGeometry x="510" y="470" width="30" height="260" as="geometry" />
        </mxCell>
        <mxCell id="TqGG68Q6wnh_f_dbYNKC-43" value="" style="ellipse;shape=doubleEllipse;whiteSpace=wrap;html=1;aspect=fixed;strokeColor=#666666;fillColor=#f5f5f5;fontColor=#333333;" vertex="1" parent="1">
          <mxGeometry x="388.5" y="480" width="50" height="50" as="geometry" />
        </mxCell>
        <mxCell id="TqGG68Q6wnh_f_dbYNKC-44" value="" style="rounded=1;whiteSpace=wrap;html=1;strokeColor=#666666;fillColor=#f5f5f5;direction=south;fontColor=#333333;" vertex="1" parent="1">
          <mxGeometry x="384" y="590" width="60" height="120" as="geometry" />
        </mxCell>
        <mxCell id="TqGG68Q6wnh_f_dbYNKC-45" value="" style="triangle;whiteSpace=wrap;html=1;strokeColor=#b85450;direction=south;fillColor=#FF0000;" vertex="1" parent="1">
          <mxGeometry x="399" y="760" width="30" height="90" as="geometry" />
        </mxCell>
        <mxCell id="TqGG68Q6wnh_f_dbYNKC-46" value="" style="triangle;whiteSpace=wrap;html=1;strokeColor=#0066CC;fillColor=#FF0000;direction=south;" vertex="1" parent="1">
          <mxGeometry x="369" y="760" width="30" height="70" as="geometry" />
        </mxCell>
        <mxCell id="TqGG68Q6wnh_f_dbYNKC-47" value="" style="triangle;whiteSpace=wrap;html=1;strokeColor=#0066CC;fillColor=#FF0000;direction=south;" vertex="1" parent="1">
          <mxGeometry x="429" y="760" width="30" height="70" as="geometry" />
        </mxCell>
        <mxCell id="TqGG68Q6wnh_f_dbYNKC-48" value="" style="rounded=0;whiteSpace=wrap;html=1;strokeColor=#0066CC;fillColor=#FF0000;" vertex="1" parent="1">
          <mxGeometry x="366" y="750" width="96" height="10" as="geometry" />
        </mxCell>
        <mxCell id="TqGG68Q6wnh_f_dbYNKC-51" value="" style="rounded=0;whiteSpace=wrap;html=1;strokeColor=#0066CC;direction=south;fillColor=#666666;" vertex="1" parent="1">
          <mxGeometry x="250" y="850" width="460" height="40" as="geometry" />
        </mxCell>
        <mxCell id="TqGG68Q6wnh_f_dbYNKC-52" value="" style="rounded=0;whiteSpace=wrap;html=1;strokeColor=#0066CC;fillColor=#666666;direction=south;" vertex="1" parent="1">
          <mxGeometry x="630" y="250" width="60" height="610" as="geometry" />
        </mxCell>
        <mxCell id="TqGG68Q6wnh_f_dbYNKC-53" value="" style="triangle;whiteSpace=wrap;html=1;strokeColor=#0066CC;fillColor=#666666;" vertex="1" parent="1">
          <mxGeometry x="660" y="410" width="60" height="80" as="geometry" />
        </mxCell>
        <mxCell id="TqGG68Q6wnh_f_dbYNKC-54" value="" style="triangle;whiteSpace=wrap;html=1;strokeColor=#0066CC;fillColor=#666666;direction=west;" vertex="1" parent="1">
          <mxGeometry x="590" y="480" width="70" height="80" as="geometry" />
        </mxCell>
        <mxCell id="TqGG68Q6wnh_f_dbYNKC-55" value="" style="triangle;whiteSpace=wrap;html=1;strokeColor=#0066CC;fillColor=#666666;" vertex="1" parent="1">
          <mxGeometry x="660" y="555" width="60" height="80" as="geometry" />
        </mxCell>
        <mxCell id="TqGG68Q6wnh_f_dbYNKC-56" value="" style="triangle;whiteSpace=wrap;html=1;strokeColor=#0066CC;fillColor=#666666;direction=west;" vertex="1" parent="1">
          <mxGeometry x="595" y="640" width="60" height="80" as="geometry" />
        </mxCell>
        <mxCell id="TqGG68Q6wnh_f_dbYNKC-57" value="" style="rounded=0;whiteSpace=wrap;html=1;strokeColor=#0066CC;fillColor=#666666;" vertex="1" parent="1">
          <mxGeometry x="500" y="380" width="180" height="40" as="geometry" />
        </mxCell>
        <mxCell id="TqGG68Q6wnh_f_dbYNKC-61" value="" style="rounded=0;whiteSpace=wrap;html=1;strokeColor=#0066CC;fillColor=#666666;direction=south;" vertex="1" parent="1">
          <mxGeometry x="220" y="770" width="60" height="120" as="geometry" />
        </mxCell>
        <mxCell id="TqGG68Q6wnh_f_dbYNKC-62" value="" style="rounded=0;whiteSpace=wrap;html=1;strokeColor=#0066CC;fillColor=#666666;" vertex="1" parent="1">
          <mxGeometry x="540" y="710" width="120" height="60" as="geometry" />
        </mxCell>
      </root>
    </mxGraphModel>
  </diagram>
</mxfile>
